<svg width="26" height="9" viewBox="0 0 26 9" fill="none" xmlns="http://www.w3.org/2000/svg">
<path d="M6.24 2.06C6.192 2.404 6.1 2.696 5.964 2.936C5.828 3.176 5.676 3.384 5.508 3.56C5.348 3.736 5.192 3.908 5.04 4.076C5.096 4.148 5.156 4.256 5.22 4.4C5.292 4.536 5.328 4.744 5.328 5.024C5.328 5.104 5.324 5.188 5.316 5.276C5.308 5.364 5.296 5.464 5.28 5.576C5.264 5.68 5.216 5.836 5.136 6.044C5.064 6.252 4.956 6.484 4.812 6.74C4.668 6.996 4.48 7.24 4.248 7.472C4.016 7.704 3.736 7.896 3.408 8.048C3.088 8.2 2.708 8.276 2.268 8.276C1.988 8.276 1.788 8.22 1.668 8.108C1.548 8.004 1.444 7.904 1.356 7.808C1.332 7.792 1.312 7.772 1.296 7.748C1.28 7.724 1.26 7.7 1.236 7.676C1.148 7.804 1.04 7.92 0.912 8.024C0.792 8.128 0.656 8.18 0.504 8.18C0.36 8.18 0.248 8.12 0.168 8C0.088 7.88 0.048 7.748 0.048 7.604C0.048 7.436 0.088 7.276 0.168 7.124C0.256 6.972 0.344 6.872 0.432 6.824C0.472 6.8 0.512 6.784 0.552 6.776C0.6 6.768 0.64 6.764 0.672 6.764C0.768 6.764 0.856 6.792 0.936 6.848C1.04 6.936 1.128 7.028 1.2 7.124C1.28 6.892 1.36 6.64 1.44 6.368C1.52 6.096 1.588 5.852 1.644 5.636C1.708 5.412 1.748 5.26 1.764 5.18C1.732 5.116 1.68 5.04 1.608 4.952C1.536 4.856 1.5 4.724 1.5 4.556C1.5 4.524 1.5 4.492 1.5 4.46C1.508 4.42 1.516 4.38 1.524 4.34C1.596 4.02 1.712 3.804 1.872 3.692C2.04 3.572 2.184 3.472 2.304 3.392C2.36 3.08 2.408 2.836 2.448 2.66C2.488 2.484 2.524 2.34 2.556 2.228C2.596 2.116 2.636 2 2.676 1.88C2.724 1.752 2.784 1.584 2.856 1.376C2.896 1.352 2.932 1.328 2.964 1.304C3.004 1.28 3.036 1.268 3.06 1.268C3.108 1.268 3.12 1.316 3.096 1.412C3.056 1.588 3.016 1.844 2.976 2.18C2.936 2.516 2.884 2.864 2.82 3.224C2.86 3.216 2.908 3.212 2.964 3.212C3.02 3.204 3.076 3.2 3.132 3.2C3.364 3.2 3.628 3.236 3.924 3.308C4.228 3.38 4.492 3.512 4.716 3.704C4.924 3.464 5.104 3.224 5.256 2.984C5.408 2.744 5.524 2.4 5.604 1.952C5.612 1.912 5.616 1.876 5.616 1.844C5.624 1.804 5.628 1.768 5.628 1.736C5.628 1.448 5.536 1.208 5.352 1.016C5.176 0.824 4.964 0.68 4.716 0.584C4.476 0.48 4.256 0.427999 4.056 0.427999C4 0.427999 3.892 0.436 3.732 0.452C3.58 0.46 3.4 0.492 3.192 0.547999C2.992 0.604 2.788 0.7 2.58 0.836C2.372 0.964 2.188 1.148 2.028 1.388C1.972 1.484 1.912 1.58 1.848 1.676C1.784 1.764 1.744 1.892 1.728 2.06C1.728 2.108 1.744 2.144 1.776 2.168C1.816 2.184 1.856 2.188 1.896 2.18C2.032 2.148 2.14 2.072 2.22 1.952C2.236 1.904 2.244 1.876 2.244 1.868C2.244 1.828 2.236 1.792 2.22 1.76C2.212 1.72 2.204 1.684 2.196 1.652V1.64C2.196 1.6 2.208 1.564 2.232 1.532C2.264 1.492 2.3 1.472 2.34 1.472C2.388 1.472 2.436 1.504 2.484 1.568C2.5 1.6 2.508 1.644 2.508 1.7C2.508 1.788 2.492 1.888 2.46 2C2.436 2.104 2.4 2.176 2.352 2.216C2.264 2.288 2.168 2.348 2.064 2.396C1.968 2.444 1.876 2.468 1.788 2.468C1.7 2.468 1.62 2.444 1.548 2.396C1.476 2.348 1.44 2.264 1.44 2.144C1.44 2.048 1.46 1.944 1.5 1.832C1.54 1.72 1.572 1.624 1.596 1.544C1.66 1.336 1.816 1.124 2.064 0.908C2.312 0.692 2.616 0.508 2.976 0.356C3.344 0.204 3.728 0.128 4.128 0.128C4.544 0.128 4.908 0.216 5.22 0.392C5.54 0.56 5.792 0.779999 5.976 1.052C6.16 1.316 6.252 1.592 6.252 1.88C6.252 1.912 6.252 1.944 6.252 1.976C6.252 2 6.248 2.028 6.24 2.06ZM4.416 3.944C4.24 3.832 4.08 3.728 3.936 3.632C3.8 3.536 3.612 3.488 3.372 3.488C3.204 3.488 2.988 3.524 2.724 3.596C2.668 3.868 2.612 4.104 2.556 4.304C2.5 4.504 2.44 4.724 2.376 4.964C2.376 4.964 2.392 4.968 2.424 4.976C2.464 4.976 2.512 4.976 2.568 4.976C2.656 4.976 2.764 4.968 2.892 4.952C3.02 4.936 3.144 4.9 3.264 4.844C3.608 4.7 3.848 4.556 3.984 4.412C4.128 4.26 4.272 4.104 4.416 3.944ZM2.208 3.812C2.144 3.844 2.072 3.904 1.992 3.992C1.912 4.08 1.84 4.196 1.776 4.34C1.744 4.412 1.748 4.492 1.788 4.58C1.836 4.668 1.888 4.756 1.944 4.844C2.008 4.604 2.06 4.404 2.1 4.244C2.148 4.084 2.184 3.94 2.208 3.812ZM4.656 5.66C4.68 5.572 4.7 5.476 4.716 5.372C4.732 5.26 4.74 5.152 4.74 5.048C4.74 4.936 4.728 4.828 4.704 4.724C4.688 4.62 4.656 4.532 4.608 4.46C4.408 4.644 4.196 4.8 3.972 4.928C3.748 5.048 3.536 5.132 3.336 5.18C3.056 5.252 2.828 5.296 2.652 5.312C2.476 5.32 2.344 5.32 2.256 5.312C2.168 5.56 2.1 5.756 2.052 5.9C2.004 6.036 1.96 6.16 1.92 6.272C1.888 6.376 1.844 6.504 1.788 6.656C1.78 6.688 1.736 6.772 1.656 6.908C1.584 7.036 1.496 7.196 1.392 7.388C1.504 7.54 1.628 7.672 1.764 7.784C1.9 7.888 2.104 7.94 2.376 7.94C2.76 7.94 3.1 7.832 3.396 7.616C3.7 7.4 3.96 7.12 4.176 6.776C4.392 6.424 4.552 6.052 4.656 5.66ZM1.044 7.46C0.964 7.372 0.888 7.3 0.816 7.244C0.744 7.188 0.68 7.16 0.624 7.16C0.576 7.16 0.54 7.18 0.516 7.22C0.484 7.252 0.448 7.324 0.408 7.436C0.368 7.54 0.348 7.64 0.348 7.736C0.348 7.888 0.4 7.964 0.504 7.964C0.592 7.964 0.664 7.932 0.72 7.868C0.776 7.804 0.848 7.732 0.936 7.652C0.936 7.652 0.948 7.632 0.972 7.592C0.996 7.544 1.02 7.5 1.044 7.46ZM8.52366 3.152C8.46766 3.152 8.41166 3.144 8.35566 3.128C8.30766 3.104 8.25966 3.076 8.21166 3.044C8.10766 2.996 8.05566 2.892 8.05566 2.732C8.05566 2.66 8.07166 2.58 8.10366 2.492C8.14366 2.404 8.20366 2.32 8.28366 2.24C8.33966 2.184 8.40766 2.156 8.48766 2.156C8.55966 2.156 8.62766 2.184 8.69166 2.24C8.72366 2.272 8.74366 2.324 8.75166 2.396C8.76766 2.46 8.77566 2.532 8.77566 2.612C8.77566 2.708 8.76766 2.804 8.75166 2.9C8.73566 2.988 8.70766 3.052 8.66766 3.092C8.61166 3.132 8.56366 3.152 8.52366 3.152ZM7.29966 7.868C7.00366 7.868 6.79966 7.8 6.68766 7.664C6.57566 7.528 6.51966 7.364 6.51966 7.172C6.51966 7.084 6.52766 6.996 6.54366 6.908C6.55966 6.82 6.57966 6.732 6.60366 6.644C6.52366 6.788 6.39966 6.956 6.23166 7.148C6.06366 7.332 5.90766 7.48 5.76366 7.592C5.73166 7.616 5.69966 7.628 5.66766 7.628C5.61966 7.628 5.59566 7.6 5.59566 7.544C5.59566 7.48 5.61966 7.424 5.66766 7.376C6.00366 7.024 6.25966 6.74 6.43566 6.524C6.61166 6.3 6.74766 6.112 6.84366 5.96C6.93966 5.808 7.03166 5.668 7.11966 5.54C7.19166 5.308 7.25566 5.084 7.31166 4.868C7.37566 4.644 7.47166 4.416 7.59966 4.184C7.63966 4.112 7.71966 4.076 7.83966 4.076C7.91966 4.076 7.99166 4.096 8.05566 4.136C8.11966 4.176 8.15166 4.244 8.15166 4.34C8.15166 4.388 8.13966 4.444 8.11566 4.508C8.02766 4.756 7.93166 4.968 7.82766 5.144C7.73166 5.312 7.60366 5.528 7.44366 5.792C7.27566 6.064 7.13966 6.328 7.03566 6.584C6.93966 6.84 6.89166 7.056 6.89166 7.232C6.89166 7.344 6.91566 7.436 6.96366 7.508C7.01966 7.58 7.09966 7.616 7.20366 7.616C7.42766 7.624 7.59966 7.588 7.71966 7.508C7.83966 7.42 7.93966 7.336 8.01966 7.256C8.12366 7.144 8.21166 7.04 8.28366 6.944C8.36366 6.848 8.43566 6.764 8.49966 6.692C8.54766 6.644 8.57166 6.652 8.57166 6.716C8.57166 6.756 8.55966 6.808 8.53566 6.872C8.51966 6.936 8.49966 6.984 8.47566 7.016C8.39566 7.128 8.29966 7.252 8.18766 7.388C8.08366 7.524 7.95966 7.64 7.81566 7.736C7.67166 7.824 7.49966 7.868 7.29966 7.868ZM8.5305 8.492C8.5145 8.492 8.4705 8.488 8.3985 8.48C8.3265 8.472 8.2905 8.448 8.2905 8.408C8.2905 8.344 8.3465 8.28 8.4585 8.216C8.5785 8.152 8.6625 8.112 8.7105 8.096C8.7745 8.072 8.8945 8.056 9.0705 8.048C9.2465 8.04 9.4225 8.036 9.5985 8.036C9.7825 8.036 9.9105 8.036 9.9825 8.036C10.1425 8.036 10.3865 8.036 10.7145 8.036C11.0505 8.036 11.4185 8.036 11.8185 8.036C12.2185 8.044 12.6065 8.048 12.9825 8.048C13.3585 8.056 13.6705 8.064 13.9185 8.072C14.0865 8.072 14.2065 8.072 14.2785 8.072C14.3505 8.08 14.4185 8.084 14.4825 8.084C14.5545 8.092 14.6745 8.108 14.8425 8.132C14.8665 8.132 14.9185 8.136 14.9985 8.144C15.0785 8.152 15.1545 8.164 15.2265 8.18C15.2985 8.196 15.3345 8.216 15.3345 8.24C15.3345 8.264 15.2985 8.284 15.2265 8.3C15.1545 8.316 15.0785 8.324 14.9985 8.324C14.9185 8.332 14.8665 8.34 14.8425 8.348C14.6185 8.348 14.4425 8.348 14.3145 8.348C14.1945 8.356 14.0705 8.36 13.9425 8.36C13.8225 8.36 13.6505 8.364 13.4265 8.372C13.0345 8.38 12.6105 8.388 12.1545 8.396C11.6985 8.412 11.2425 8.424 10.7865 8.432C10.3385 8.448 9.9225 8.46 9.5385 8.468C9.1545 8.476 8.8385 8.484 8.5905 8.492H8.5305ZM17.9064 7.208C17.7064 7.464 17.5184 7.644 17.3424 7.748C17.1664 7.852 16.9984 7.916 16.8384 7.94C16.6784 7.956 16.5104 7.964 16.3344 7.964C16.0624 7.964 15.8504 7.876 15.6984 7.7C15.5544 7.516 15.4744 7.304 15.4584 7.064C15.4504 6.904 15.4584 6.712 15.4824 6.488C15.5144 6.264 15.5944 6.02 15.7224 5.756C15.8424 5.508 15.9704 5.328 16.1064 5.216C16.2424 5.096 16.3744 5.012 16.5024 4.964C16.6304 4.916 16.7344 4.876 16.8144 4.844C16.8784 4.82 16.9464 4.808 17.0184 4.808C17.1784 4.808 17.3064 4.848 17.4024 4.928C17.4424 4.96 17.4664 5.004 17.4744 5.06C17.4904 5.108 17.4984 5.16 17.4984 5.216C17.4984 5.248 17.4944 5.284 17.4864 5.324C17.4864 5.356 17.4824 5.388 17.4744 5.42C17.4584 5.524 17.4104 5.66 17.3304 5.828C17.2584 5.988 17.1904 6.144 17.1264 6.296C17.0784 6.344 17.0264 6.368 16.9704 6.368C16.9064 6.368 16.8904 6.332 16.9224 6.26C16.9624 6.1 17.0144 5.968 17.0784 5.864C17.1504 5.752 17.1864 5.656 17.1864 5.576C17.1944 5.552 17.1984 5.528 17.1984 5.504C17.1984 5.48 17.1984 5.46 17.1984 5.444C17.1984 5.332 17.1504 5.256 17.0544 5.216C17.0064 5.2 16.9704 5.192 16.9464 5.192C16.8424 5.192 16.7224 5.24 16.5864 5.336C16.4504 5.432 16.3384 5.564 16.2504 5.732C16.1464 5.916 16.0704 6.124 16.0224 6.356C15.9824 6.588 15.9624 6.784 15.9624 6.944C15.9624 7.136 16.0304 7.296 16.1664 7.424C16.3104 7.544 16.4824 7.596 16.6824 7.58C16.9064 7.556 17.1224 7.496 17.3304 7.4C17.5464 7.304 17.7304 7.156 17.8824 6.956C17.9064 6.94 17.9304 6.932 17.9544 6.932C17.9784 6.932 17.9904 6.948 17.9904 6.98C17.9904 7.012 17.9784 7.056 17.9544 7.112C17.9384 7.16 17.9224 7.192 17.9064 7.208ZM21.7653 7.064C21.7893 7.04 21.8213 7.028 21.8613 7.028C21.9173 7.028 21.9453 7.056 21.9453 7.112C21.9453 7.144 21.9253 7.192 21.8853 7.256C21.8533 7.32 21.7813 7.396 21.6693 7.484C21.5573 7.58 21.4413 7.668 21.3213 7.748C21.2093 7.828 21.0533 7.868 20.8533 7.868C20.6373 7.868 20.4653 7.828 20.3373 7.748C20.2173 7.668 20.1293 7.58 20.0733 7.484C20.0253 7.38 19.9933 7.3 19.9773 7.244C19.8813 7.316 19.7813 7.412 19.6773 7.532C19.5813 7.644 19.4413 7.748 19.2573 7.844C19.0733 7.932 18.8093 7.976 18.4653 7.976C18.2733 7.976 18.0973 7.932 17.9373 7.844C17.7853 7.748 17.7093 7.544 17.7093 7.232C17.7093 7.144 17.7133 7.052 17.7213 6.956C17.7373 6.852 17.7613 6.74 17.7933 6.62C17.8893 6.244 18.0013 5.948 18.1293 5.732C18.2573 5.516 18.4493 5.356 18.7053 5.252C18.8653 5.188 19.0613 5.128 19.2933 5.072C19.5253 5.016 19.7293 4.968 19.9053 4.928C19.9613 4.912 20.0093 4.86 20.0493 4.772C20.0973 4.676 20.1493 4.588 20.2053 4.508C20.2373 4.468 20.2733 4.436 20.3133 4.412C20.3533 4.38 20.3973 4.364 20.4453 4.364C20.4853 4.364 20.5373 4.384 20.6013 4.424C20.6573 4.464 20.6933 4.54 20.7093 4.652C20.7333 4.764 20.7453 4.868 20.7453 4.964C20.7373 5.012 20.7173 5.072 20.6853 5.144C20.6613 5.208 20.6413 5.28 20.6253 5.36C20.6093 5.464 20.5693 5.612 20.5053 5.804C20.4413 5.996 20.4093 6.156 20.4093 6.284C20.4093 6.396 20.4013 6.536 20.3853 6.704C20.3693 6.864 20.3693 6.976 20.3853 7.04C20.4733 7.232 20.5973 7.36 20.7573 7.424C20.9173 7.48 21.0573 7.496 21.1773 7.472C21.2653 7.456 21.3653 7.404 21.4773 7.316C21.5893 7.228 21.6853 7.144 21.7653 7.064ZM19.8213 5.696C19.8053 5.632 19.7653 5.564 19.7013 5.492C19.6453 5.42 19.5733 5.384 19.4853 5.384C19.4693 5.384 19.4373 5.392 19.3893 5.408C19.2533 5.456 19.1093 5.548 18.9573 5.684C18.8053 5.812 18.6733 5.98 18.5613 6.188C18.4493 6.396 18.3853 6.64 18.3693 6.92C18.3693 7 18.3933 7.104 18.4413 7.232C18.4973 7.36 18.5693 7.468 18.6573 7.556C18.7453 7.644 18.8333 7.668 18.9213 7.628C19.1133 7.548 19.2733 7.436 19.4013 7.292C19.5373 7.14 19.6493 6.956 19.7373 6.74C19.7773 6.636 19.8053 6.528 19.8213 6.416C19.8453 6.296 19.8573 6.184 19.8573 6.08C19.8573 5.984 19.8533 5.904 19.8453 5.84C19.8373 5.768 19.8293 5.72 19.8213 5.696ZM25.6288 7.376C25.6048 7.424 25.5288 7.512 25.4008 7.64C25.2808 7.76 25.1288 7.832 24.9448 7.856C24.8168 7.872 24.7248 7.8 24.6688 7.64C24.6208 7.472 24.5968 7.28 24.5968 7.064C24.5968 6.976 24.6008 6.888 24.6088 6.8C24.6168 6.704 24.6288 6.616 24.6448 6.536C24.6608 6.448 24.6768 6.364 24.6928 6.284C24.7088 6.204 24.7168 6.136 24.7168 6.08C24.7168 5.944 24.6648 5.892 24.5608 5.924C24.4888 6.012 24.4208 6.144 24.3568 6.32C24.3008 6.496 24.2528 6.628 24.2128 6.716C24.1248 6.916 24.0528 7.084 23.9968 7.22C23.9408 7.356 23.8688 7.424 23.7808 7.424C23.7088 7.424 23.6728 7.356 23.6728 7.22C23.6728 7.108 23.6888 6.992 23.7208 6.872C23.7528 6.752 23.7688 6.692 23.7688 6.692C23.8088 6.58 23.8448 6.456 23.8768 6.32C23.9168 6.176 23.9488 6.052 23.9728 5.948C23.9968 5.836 24.0088 5.78 24.0088 5.78C24.0088 5.764 24.0088 5.74 24.0088 5.708C24.0168 5.676 24.0208 5.644 24.0208 5.612C24.0208 5.548 24.0088 5.488 23.9848 5.432C23.9688 5.376 23.9208 5.344 23.8408 5.336C23.7928 5.328 23.7128 5.376 23.6008 5.48C23.4968 5.576 23.3888 5.696 23.2768 5.84C23.1728 5.976 23.0888 6.104 23.0248 6.224C22.9208 6.44 22.8488 6.66 22.8088 6.884C22.7688 7.108 22.7328 7.316 22.7008 7.508C22.6768 7.692 22.6328 7.844 22.5688 7.964C22.5448 8.012 22.4968 8.036 22.4248 8.036C22.3688 8.036 22.3088 8.02 22.2448 7.988C22.1888 7.948 22.1608 7.904 22.1608 7.856C22.1768 7.712 22.2088 7.54 22.2568 7.34C22.3128 7.14 22.3728 6.9 22.4368 6.62C22.4608 6.524 22.4808 6.412 22.4968 6.284C22.5128 6.156 22.5248 6.06 22.5328 5.996V5.972C22.5328 5.86 22.4808 5.804 22.3768 5.804C22.3368 5.804 22.2928 5.816 22.2448 5.84C22.0928 5.968 21.9648 6.108 21.8608 6.26C21.7568 6.412 21.6728 6.544 21.6088 6.656C21.5368 6.768 21.4728 6.836 21.4168 6.86C21.3928 6.868 21.3808 6.844 21.3808 6.788C21.3808 6.756 21.3848 6.72 21.3928 6.68C21.4008 6.64 21.4208 6.6 21.4528 6.56C21.5248 6.488 21.6008 6.372 21.6808 6.212C21.7608 6.052 21.8448 5.888 21.9328 5.72C22.0288 5.544 22.1328 5.396 22.2448 5.276C22.3648 5.148 22.4928 5.084 22.6288 5.084C22.7088 5.084 22.7888 5.14 22.8688 5.252C22.9568 5.364 23.0088 5.508 23.0248 5.684C23.1608 5.572 23.2888 5.452 23.4088 5.324C23.5288 5.188 23.6688 5.068 23.8288 4.964C23.8928 4.932 23.9608 4.916 24.0328 4.916C24.1528 4.916 24.2328 4.952 24.2728 5.024C24.3288 5.096 24.3608 5.2 24.3688 5.336C24.3768 5.472 24.3888 5.544 24.4048 5.552C24.4208 5.56 24.4568 5.536 24.5128 5.48C24.5768 5.416 24.6648 5.392 24.7768 5.408C24.8168 5.408 24.8728 5.432 24.9448 5.48C25.0168 5.528 25.0528 5.588 25.0528 5.66C25.0528 5.764 25.0448 5.892 25.0288 6.044C25.0128 6.188 24.9928 6.34 24.9688 6.5C24.9608 6.532 24.9568 6.576 24.9568 6.632C24.9568 6.68 24.9568 6.736 24.9568 6.8C24.9568 6.904 24.9648 7.016 24.9808 7.136C25.0048 7.248 25.0568 7.332 25.1368 7.388C25.1608 7.412 25.1928 7.424 25.2328 7.424C25.3208 7.424 25.4368 7.348 25.5808 7.196C25.6048 7.172 25.6248 7.16 25.6408 7.16C25.6648 7.16 25.6768 7.184 25.6768 7.232C25.6768 7.296 25.6608 7.344 25.6288 7.376Z" fill="white"/>
</svg>
